<svg xmlns="http://www.w3.org/2000/svg" xmlns:xlink="http://www.w3.org/1999/xlink" version="1.1" x="0px" y="0px" viewBox="0 0 1024 1280" style="enable-background:new 0 0 1024 1024;" xml:space="preserve"><g><g><g><path d="M925,617c-23.8-23.8-47.6-47.6-71.5-71.5c-37.9-37.9-75.8-75.8-113.7-113.7c-8.6-8.6-17.3-17.3-25.9-25.9     c-5.7-5.7-15.5-5.7-21.2,0c-13.2,13.2-26.5,26.5-39.7,39.7c-31.5,31.5-63.1,63.1-94.6,94.6c-38.4,38.4-76.7,76.7-115.1,115.1     c-33,33-65.9,65.9-98.9,98.9c-16.1,16.1-32.7,31.8-48.3,48.3c-0.2,0.2-0.4,0.4-0.7,0.7c-5.7,5.7-5.7,15.5,0,21.2     c5.7,5.7,15.5,5.7,21.2,0c13.2-13.2,26.5-26.5,39.7-39.7c31.5-31.5,63.1-63.1,94.6-94.6c38.4-38.4,76.7-76.7,115.1-115.1     c33-33,65.9-65.9,98.9-98.9c10.9-10.9,21.9-21.9,32.8-32.8c5.2-5.2,10.6-10.1,15.5-15.5c0.2-0.2,0.4-0.4,0.7-0.7     c-7.1,0-14.1,0-21.2,0c23.8,23.8,47.6,47.6,71.5,71.5c37.9,37.9,75.8,75.8,113.7,113.7c8.6,8.6,17.3,17.3,25.9,25.9     c5.7,5.7,15.5,5.7,21.2,0C930.8,632.4,930.8,622.7,925,617L925,617z"/></g></g><g><g><path d="M164.8,690.7c19.1-19.2,38.2-38.4,57.3-57.6c30.6-30.7,61.2-61.5,91.7-92.2c7-7,14-14.1,21-21.1     c-7.1,0-14.1,0-21.2,0c16.1,16.1,32.1,32.1,48.2,48.2c25.6,25.6,51.3,51.3,76.9,76.9c5.9,5.9,11.8,11.8,17.8,17.8     c5.7,5.7,15.5,5.7,21.2,0c5.7-5.7,5.7-15.5,0-21.2c-16.1-16.1-32.1-32.1-48.2-48.2c-25.6-25.6-51.3-51.3-76.9-76.9     c-5.9-5.9-11.8-11.8-17.8-17.8c-5.7-5.7-15.5-5.8-21.2,0c-19.1,19.2-38.2,38.4-57.3,57.6c-30.6,30.7-61.2,61.5-91.7,92.2     c-7,7-14,14.1-21,21.1c-5.7,5.7-5.7,15.5,0,21.2C149.3,696.4,159,696.5,164.8,690.7L164.8,690.7z"/></g></g><g><g><path d="M513.1,378.3c0,1.6-0.1,3.2-0.2,4.9c-0.1,0.7-0.1,1.4-0.2,2.1c0-0.2,0.4-2.4,0.1-0.6     c-0.5,3.1-1.2,6.2-2.2,9.2c-0.5,1.5-1,2.9-1.6,4.4c0.9-2.4-0.2,0.4-0.6,1.2c-1.5,2.9-3.2,5.7-5,8.4c-0.4,0.5-0.8,1.1-1.2,1.6     c0.1-0.2,1.4-1.7,0.3-0.5c-1,1.1-2,2.3-3,3.4c-0.9,0.9-1.8,1.9-2.8,2.7c-0.7,0.7-4.2,3.5-2,1.8c-2.3,1.7-4.6,3.3-7.1,4.6     c-1.3,0.8-2.7,1.4-4.1,2.1c-0.2,0.1-2.2,1-0.6,0.3c1.5-0.7-1,0.4-1.3,0.5c-2.7,0.9-5.5,1.8-8.4,2.4c-0.9,0.2-1.8,0.4-2.7,0.5     c-0.2,0-2.4,0.3-0.7,0.1c1.7-0.2-0.5,0-0.7,0c-0.9,0.1-1.8,0.1-2.8,0.2c-3.3,0.1-6.5,0-9.7-0.3c2.6,0.2-0.4-0.1-1.4-0.3     c-1.8-0.3-3.5-0.8-5.2-1.2c-1.3-0.4-2.6-0.8-3.8-1.2c-0.8-0.3-1.7-0.6-2.5-0.9c0.2,0.1,2.1,1,0.5,0.2c-2.8-1.3-5.5-2.8-8-4.4     c-1.3-0.8-2.5-1.7-3.8-2.6c2,1.5-0.3-0.3-1-1c-2.3-2-4.3-4.3-6.4-6.5c-1.9-2-0.5-0.5-0.1,0c-0.4-0.5-0.8-1-1.2-1.6     c-0.9-1.3-1.7-2.5-2.5-3.8c-0.7-1.1-1.3-2.3-1.9-3.4c-0.4-0.8-2.3-5.2-1.2-2.4c-1.1-2.7-2-5.4-2.7-8.2c-0.3-1.3-0.6-2.6-0.9-4     c-0.1-0.4-0.5-3.3-0.2-1.4c0.2,1.7-0.1-1.1-0.1-1.4c-0.2-3-0.2-6-0.1-9.1c0-0.7,0.1-1.4,0.2-2.1c0.2-2.4-0.4,2.3,0-0.1     c0.3-1.6,0.6-3.1,0.9-4.6c0.7-2.8,1.6-5.6,2.6-8.3c0.8-2.2-1,2,0-0.1c0.3-0.6,0.6-1.2,0.9-1.8c0.8-1.6,1.6-3.1,2.5-4.6     c0.7-1.1,1.4-2.2,2.1-3.3c0.4-0.5,0.8-1.1,1.1-1.6c1.3-1.9-1.4,1.7,0.1,0c2-2.3,4-4.5,6.3-6.6c0.4-0.4,3.1-2.6,2-1.8     c-1.1,0.9,2.1-1.5,2.7-1.9c2.6-1.7,5.3-3.1,8-4.5c0.2-0.1,2.2-1,0.6-0.3c-1.7,0.7,0.9-0.3,1.3-0.5c1.3-0.4,2.5-0.9,3.8-1.2     c1.5-0.4,3-0.8,4.6-1.2c0.7-0.1,1.3-0.3,2-0.4c0.3-0.1,3.1-0.4,1.4-0.2c-1.4,0.2,2.8-0.2,3.5-0.2c1.6-0.1,3.3-0.1,4.9,0     c1.4,0,2.8,0.2,4.1,0.3c1.8,0.1-0.3-0.1-0.6-0.1c1.1,0.2,2.2,0.4,3.3,0.6c3.3,0.7,6.5,1.7,9.6,2.8c0.2,0.1,2.2,0.9,0.7,0.2     c-1.8-0.7,1.5,0.7,1.8,0.9c1.4,0.7,2.7,1.4,4,2.2c1.5,0.9,3,1.8,4.4,2.8c0.5,0.4,1.1,0.8,1.6,1.2c-1.7-1.3-0.4-0.3,0.5,0.5     c2.4,2.2,4.6,4.5,6.9,6.9c0.1,0.1,1.5,1.8,0.5,0.5c-1.2-1.4,1.2,1.7,1.2,1.6c0.9,1.3,1.7,2.5,2.5,3.9c0.9,1.5,1.7,3.1,2.5,4.6     c0.3,0.6,0.6,1.2,0.8,1.8c-0.6-1.3-0.4-1.2,0,0.1c1.1,3.4,2.2,6.8,2.9,10.3c0.1,0.7,0.2,1.3,0.4,2c0.4,2.3-0.2-2.3,0,0.1     C512.9,374.1,513.1,376.2,513.1,378.3c0.1,7.8,6.8,15.4,15,15c8.1-0.4,15.1-6.6,15-15c-0.4-33.7-21.4-63.1-52.8-74.9     c-30.2-11.3-66.7-1.3-87.2,23.5c-21.4,25.9-25.2,63.1-7.6,92.2c17.5,29,51.5,43.3,84.5,36.9c36.6-7.1,62.8-41.1,63.2-77.8     c0.1-7.8-7-15.4-15-15C519.9,363.7,513.2,369.9,513.1,378.3z"/></g></g><g><g><path d="M899.4,231.7c0,24.7,0,49.3,0,74c0,56.3,0,112.6,0,169c0,61.4,0,122.7,0,184.1c0,40.2,0,80.5,0,120.7     c0,3.7,0,7.3,0,11c0,0.6,0,1.2,0,1.8c0,0.4-0.1,1.9,0,1.4c0.1-3.3-0.3,0.5-0.4,1.2c0.8-3-0.3,0.4-0.6,1.1     c-1.6,3.3,1.8-1.6-0.8,0.9c-2.6,2.6,2.3-0.8-0.9,0.8c-0.8,0.4-1.5,0.9-2.3,1.2c3.7-1.6-4.2,0,0-0.1c-5.7,0.2-11.4,0-17.1,0     c-36.4,0-72.9,0-109.3,0c-57.6,0-115.2,0-172.8,0c-62.7,0-125.5,0-188.2,0c-51.8,0-103.6,0-155.4,0c-24.8,0-49.7,0.2-74.5,0     c-0.4,0-0.8,0-1.2,0c-0.4,0-15-0.5-1.4,0c3.3,0.1-0.5-0.3-1.2-0.4c3,0.8-0.4-0.3-1.1-0.6c-2.3-1.1-0.6-0.5,0,0.1     c-0.4-0.4-2.9-3.5-1-0.8c-0.7-1-1.4-2.2-1.9-3.3c1.3,3.1,0-0.9-0.1-1.4c0.4,2.1,0.1,1.5,0.2,0c0.1-1.9,0-3.8,0-5.7     c0-12.8,0-25.7,0-38.5c0-50.9,0-101.8,0-152.7c0-62.5,0-125.1,0-187.6c0-47.9,0-95.8,0-143.6c0-10.3,0-20.5,0-30.8     c0-0.6,0-1.1,0-1.7c0,0,0,0,0,0c0-0.5,0-0.9,0-1.4c-0.3,1.8-0.3,1.8,0.1,0.1c-0.1,0,1.2-3.4-0.2-0.1c0.5-1.2,1.2-2.3,1.9-3.3     c-1.9,2.7,0.6-0.3,1-0.8c-2.3,2.2,0.6-0.2,1.1-0.6c0.4-0.2,0.8-0.4,1.1-0.6c-1.6,0.7-1.6,0.8,0.1,0.2c1.7-0.4,1.7-0.4-0.1-0.1     c0.5,0,0.9,0,1.4,0c1.4,0.1,2.8,0,4.2,0c28.9,0,57.8,0,86.6,0c54.1,0,108.2,0,162.3,0c63,0,125.9,0,188.9,0     c55.9,0,111.8,0,167.7,0c32.8,0,65.6,0,98.4,0c2.7,0,5.3,0,8,0c0.4,0,0.8,0,1.2,0c1.5-0.1,2.2,0.2,0-0.2c0.5,0.1,4.5,1.4,1.4,0.1     c1.2,0.5,2.3,1.2,3.3,1.9c-2.7-1.9,0.3,0.6,0.8,1c-2.2-2.3,0.2,0.6,0.6,1.1c0.2,0.4,0.4,0.8,0.6,1.1c-0.7-1.6-0.8-1.6-0.2,0.1     c0.1,0.4,0.2,0.9,0.3,1.3C899.4,229.9,899.3,229.9,899.4,231.7c0.2,7.8,6.7,15.4,15,15c7.9-0.4,15.3-6.6,15-15     c-0.6-20.5-16.6-36.1-37-36.5c-2.3,0-4.7,0-7,0c-12.1,0-24.2,0-36.3,0c-46.3,0-92.6,0-138.8,0c-62.3,0-124.6,0-186.9,0     c-61.1,0-122.1,0-183.2,0c-43.6,0-87.3,0-130.9,0c-10,0-20,0-30,0c-4.3,0-8.5,0.1-12.8,1.2c-16.6,4.2-27.1,19.7-27.2,36.3     c-0.2,29.8,0,59.6,0,89.4c0,59.1,0,118.3,0,177.4c0,60.6,0,121.3,0,181.9c0,35.4,0,70.7,0,106.1c0,2.5-0.1,5,0.2,7.5     c1.7,19.5,17.6,33.4,36.9,33.8c7.4,0.1,14.8,0,22.2,0c39.9,0,79.9,0,119.8,0c60,0,120,0,180,0c62.8,0,125.7,0,188.5,0     c49.5,0,99.1,0,148.6,0c14.3,0,28.6,0,42.9,0c8.1,0,17.2,0.8,25.1-1.6c16-4.9,25.8-19.7,26-36.1c0-3.4,0-6.8,0-10.2     c0-15.4,0-30.8,0-46.2c0-54.6,0-109.1,0-163.7c0-62.7,0-125.4,0-188.1c0-44.1,0-88.2,0-132.3c0-6.4,0-12.7,0-19.1     c0-7.8-6.9-15.4-15-15C906.3,217,899.4,223.3,899.4,231.7z"/></g></g><g><g><path d="M87.8,335.6c23.4-6.7,46.9-13.5,70.3-20.2c-6.3-4.8-12.7-9.6-19-14.5c0,11.4,0,22.7,0,34.1     c0,27.1,0,54.3,0,81.4c0,33,0,66,0,99c0,28.4,0,56.8,0,85.2c0,13.8-0.8,27.9,0,41.7c0,0.2,0,0.4,0,0.6c9.8-1.3,19.6-2.7,29.5-4     c-10.3-35.8-20.6-71.5-30.9-107.3c-15.4-53.7-30.9-107.3-46.3-161c-2.2-7.5-4.3-14.9-6.5-22.4c-0.4-1.4-0.8-2.9-1.2-4.3     c0-0.1,0-0.2-0.1-0.3c-0.4-1.2-0.4-2.4-0.2-0.1c0-0.4,0.1-4.8-0.3-1.4c0.2-1.3,0.6-2.6,1-3.8c-1.4,3.7,2.7-3,0.2-0.2     c0.3-0.4,3.5-3,0.9-1.2c0.7-0.5,1.5-1,2.3-1.4C86.1,336.2,86.2,336.2,87.8,335.6c7.7-2.5,12.7-10.4,10.5-18.5     c-2.1-7.6-10.7-13-18.5-10.5C60,313.1,49.4,332.9,55,352.9c1.4,4.9,2.8,9.9,4.3,14.8c6.4,22.3,12.8,44.6,19.3,66.9     C95,491.8,111.4,548.9,127.9,606c3.9,13.7,7.9,27.4,11.8,41c4.6,16.1,29.5,13.1,29.5-4c0-11.4,0-22.7,0-34.1     c0-27.1,0-54.3,0-81.4c0-33,0-66,0-99c0-28.4,0-56.8,0-85.2c0-13.9,0.5-27.9,0-41.7c0-0.2,0-0.4,0-0.6c0-9.7-9.6-17.2-19-14.5     c-23.4,6.7-46.9,13.5-70.3,20.2c-7.8,2.2-12.6,10.6-10.5,18.5C71.5,332.9,80,337.9,87.8,335.6z"/></g></g><g><g><path d="M203.3,828.8c11.7,0,23.3,0,35,0c27.9,0,55.7,0,83.6,0c33.9,0,67.7,0,101.6,0c29.3,0,58.6,0,87.9,0     c14.1,0,28.5,0.8,42.6,0c0.2,0,0.4,0,0.6,0c-1.3-9.8-2.7-19.6-4-29.5c-15.9,4.6-31.8,9.1-47.6,13.7c-34.7,10-69.5,20-104.2,30     s-69.5,20-104.2,30c-15.9,4.6-31.9,8.8-47.6,13.7c-3.4,1.1,1.7-0.1-1.5,0.3c-2.5,0.3-1,0.1,0,0.2c-0.9-0.1-1.7-0.4-2.6-0.6     c-0.3-0.1-2.2-0.9-0.7-0.2c1.7,0.8-0.8-0.5-1.1-0.8c-1.4-1,0.2,0.2,0.4,0.4c-0.3-0.2-2.7-2.8-1.5-1.4c1,1.3-1.7-3.7-0.6-0.8     c-0.2-0.5-0.3-1-0.5-1.5c-0.1-0.5-0.3-1-0.4-1.5c-1.9-6.3-3.6-12.7-5.5-19c-4.7-16.2-9.3-32.5-14-48.7c-0.3-1.1-0.7-2.3-1-3.4     c-2.2-7.8-10.6-12.6-18.5-10.5c-7.8,2.1-12.7,10.6-10.5,18.5c3.8,13.2,7.6,26.5,11.4,39.7c2.4,8.4,4.9,16.9,7.3,25.3     c1.9,6.5,3.4,13,7.4,18.6c9.2,12.8,24.8,18.2,40,14.2c1.7-0.4,3.3-0.9,4.9-1.4c9.2-2.7,18.5-5.3,27.7-8     c33.5-9.6,66.9-19.3,100.4-28.9c36.7-10.6,73.4-21.1,110.1-31.7c19.8-5.7,39.9-10.9,59.6-17.1c0.3-0.1,0.6-0.2,0.9-0.3     c16.1-4.6,13.1-29.5-4-29.5c-11.7,0-23.3,0-35,0c-27.9,0-55.7,0-83.6,0c-33.9,0-67.7,0-101.6,0c-29.3,0-58.6,0-87.9,0     c-14.2,0-28.4-0.5-42.6,0c-0.2,0-0.4,0-0.6,0c-7.8,0-15.4,6.9-15,15C188.7,821.9,194.9,828.8,203.3,828.8z"/></g></g><g><g><path d="M785.3,141.4c7,24.2,14,48.5,20.9,72.7c4.8-6.3,9.6-12.7,14.5-19c-11.7,0-23.3,0-35,0     c-27.9,0-55.7,0-83.6,0c-33.9,0-67.7,0-101.6,0c-29.3,0-58.6,0-87.9,0c-14.1,0-28.5-0.8-42.6,0c-0.2,0-0.4,0-0.6,0     c1.3,9.8,2.7,19.6,4,29.5c36.6-10.5,73.1-21,109.7-31.6c55.4-15.9,110.7-31.9,166.1-47.8c7.8-2.2,15.5-4.5,23.3-6.7     c1.5-0.4,3-0.8,4.4-1.3c0.1,0,0.2,0,0.2-0.1c0.4-0.1,8.4-2.1,1.4-0.4c-3.7,0.9,4.2,0.4,0.2-0.2c1.3,0.2,2.6,0.6,3.8,1     c-3.7-1.4,3,2.7,0.2,0.2c0.4,0.3,3,3.5,1.2,0.9c0.5,0.7,1,1.5,1.4,2.3C784.7,139.7,784.7,139.8,785.3,141.4     c2.5,7.7,10.4,12.7,18.5,10.5c7.6-2.1,13-10.7,10.5-18.5c-6.5-20-26.3-30.4-46.5-24.8c-5.2,1.5-10.3,3-15.5,4.5     c-23.1,6.7-46.2,13.3-69.3,20c-58.5,16.8-117,33.7-175.5,50.5c-14,4-28,8.1-42,12.1c-16.1,4.6-13.1,29.5,4,29.5     c11.7,0,23.3,0,35,0c27.9,0,55.7,0,83.6,0c33.9,0,67.7,0,101.6,0c29.3,0,58.6,0,87.9,0c14.2,0,28.4,0.5,42.6,0c0.2,0,0.4,0,0.6,0     c9.7,0,17.2-9.6,14.5-19c-7-24.2-14-48.5-20.9-72.7c-2.2-7.8-10.6-12.6-18.5-10.5C788,125.1,783.1,133.6,785.3,141.4z"/></g></g><g><g><path d="M936.2,688.4c-8.6,2.5-17.1,4.9-25.7,7.4c6.3,4.8,12.7,9.6,19,14.5c0-19.6,0-39.2,0-58.7     c0-31.4,0-62.8,0-94.2c0-7.2,0-14.3,0-21.5c-9.8,1.3-19.6,2.7-29.5,4c12.6,43.8,25.2,87.6,37.8,131.4c0.8,2.8,1.5,5.7,2.4,8.5     c0.1,0.2,0.1,0.4,0.2,0.5c0.3,1,0.5,2.5,0.2,0.1c0.1,0.9,0.1,1.8,0.1,2.7c0.3-1.5,0.3-1.8,0.1-0.7c-0.4,1-0.5,2.2-0.9,3.2     c1.4-3.7-2.7,3-0.2,0.2c-0.3,0.4-3.5,3-0.9,1.2c-0.7,0.5-1.5,1-2.3,1.4C937.9,687.8,937.8,687.8,936.2,688.4     c-7.7,2.5-12.7,10.4-10.5,18.5c2.1,7.6,10.7,13,18.5,10.5c20.8-6.7,30.3-27.2,24.4-47.7c-2.7-9.5-5.5-19-8.2-28.5     c-8.4-29.1-16.8-58.2-25.1-87.4c-2.1-7.3-4.2-14.6-6.3-21.9c-4.6-16.1-29.5-13.1-29.5,4c0,19.6,0,39.2,0,58.7     c0,31.4,0,62.8,0,94.2c0,7.2,0,14.3,0,21.5c0,9.6,9.6,17.2,19,14.5c8.6-2.5,17.1-4.9,25.7-7.4c7.8-2.2,12.6-10.6,10.5-18.5     C952.5,691.1,944,686.1,936.2,688.4z"/></g></g></g><text x="0" y="1039" fill="#000000" font-size="5px" font-weight="bold" font-family="'Helvetica Neue', Helvetica, Arial-Unicode, Arial, Sans-serif">Created by shashank singh</text><text x="0" y="1044" fill="#000000" font-size="5px" font-weight="bold" font-family="'Helvetica Neue', Helvetica, Arial-Unicode, Arial, Sans-serif">from the Noun Project</text></svg>